<svg width="150" height="158" viewBox="0 0 150 158" fill="secondaryColor" xmlns="http://www.w3.org/2000/svg">
    <path d="M146.853 59.6224C144.177 50.8319 140.355 42.0414 137.298 34.0153C136.151 31.34 135.387 28.6646 134.24 25.9892C132.711 21.4029 131.947 18.7276 128.507 16.0522C126.978 14.5234 122.01 12.2302 116.277 9.55486C109.78 6.8795 102.518 3.82195 98.3138 1.91097C97.5494 1.52878 97.1672 1.1466 96.785 0.764407C96.4028 0.382212 95.6385 0 95.2563 0C95.2563 0 93.7275 4.58635 91.0521 6.49732C88.3768 8.4083 82.6438 11.4659 75.7643 11.8481C68.5026 12.2302 63.1519 9.55487 59.7122 7.2617C56.2724 4.96853 55.1258 3.05756 54.3615 0C53.9793 0 53.2149 0.382212 52.8327 0.764407C52.4505 1.1466 51.6861 1.52878 51.3039 1.91097C47.8641 3.43975 42.5134 5.73294 37.1627 8.02611C29.901 11.0837 23.0215 14.5234 21.1105 16.0522C17.2886 18.3454 16.9064 21.0207 15.3776 25.9892C14.6132 28.6646 13.4666 31.34 12.3201 34.0153C9.26249 42.4236 5.05836 51.2141 2.76519 59.6224C2.0008 61.5333 4.29397 61.9155 5.82274 62.2977C6.20494 62.2977 6.58713 62.6799 6.96933 62.6799C7.35152 62.6799 8.11591 63.0621 8.49811 63.0621C10.7913 63.8265 13.0844 64.2087 15.3776 64.9731C18.4352 65.7375 21.4927 66.8841 24.5503 67.6485C26.0791 68.0306 28.7544 69.9416 29.901 67.2663C30.6654 65.3553 31.0476 63.8265 31.812 62.2977C32.1942 61.1511 32.5764 60.0045 33.3408 58.858C34.1051 61.5333 34.4873 64.5909 34.8695 67.2663C36.0161 81.4075 35.2517 95.1664 35.6339 110.454C36.0161 118.863 34.4873 109.308 33.7229 138.354C33.7229 141.03 32.5764 142.941 32.5764 145.234C32.5764 147.145 35.6339 149.438 40.2203 150.967C49.3929 154.407 57.0368 157.846 75.3821 157.846C96.0207 157.464 103.665 154.024 112.455 150.202C115.513 148.674 118.188 147.145 118.188 145.616C118.188 143.323 117.041 141.03 117.041 138.737C115.513 109.69 114.748 119.245 115.13 110.836C115.895 95.5486 115.13 82.1718 115.895 67.6485C116.277 64.5909 116.659 61.9155 117.424 58.858C117.424 58.858 117.424 58.858 117.424 59.2402C118.188 60.3867 118.57 61.5333 118.952 62.6799C119.335 64.2087 120.099 65.7375 120.863 67.6485C121.628 70.3238 124.685 68.4128 126.214 68.0306C129.272 67.2663 132.329 66.1197 135.387 65.3553C137.68 64.5909 139.973 64.2087 142.266 63.4443C142.648 63.4443 143.413 63.0621 143.795 63.0621C144.177 63.0621 144.559 62.6799 144.942 62.6799C144.942 61.9155 147.617 61.5333 146.853 59.6224Z" fill="primaryColor"/>
    <path d="M23.4037 58.4757C15.3776 55.4182 5.05837 52.7428 5.05837 52.7428L0.0898453 66.884C0.0898453 66.884 -1.43893 69.1772 8.11593 71.0881C10.4091 71.4703 13.4667 72.6169 16.142 73.3813C19.1996 74.1457 22.2571 74.9101 23.7859 75.6745C26.4613 76.8211 26.8435 76.4389 27.99 73.7635C28.7544 71.8525 31.812 61.9155 31.812 61.9155L23.4037 58.4757Z" fill="secondaryColor"/>
    <path d="M126.596 58.4757C134.622 55.4182 144.942 52.7428 144.942 52.7428L149.91 66.884C149.91 66.884 151.439 69.1772 141.884 71.0881C139.591 71.4703 136.533 72.6169 133.858 73.3813C130.8 74.1457 127.743 74.9101 126.214 75.6745C123.539 76.8211 123.157 76.4389 122.01 73.7635C121.246 71.8525 118.188 61.9155 118.188 61.9155L126.596 58.4757Z" fill="secondaryColor"/>
    <path d="M79.9686 11.4658C83.4084 10.7015 83.7906 10.3193 83.7906 10.3193C83.7906 10.3193 83.7906 31.34 83.7906 34.0153C83.7906 36.6907 78.4398 36.6907 73.8535 36.6907C69.2672 36.6907 65.4452 37.4551 65.4452 32.4865C65.4452 30.5756 65.4452 10.3193 65.4452 10.3193C65.4452 10.3193 68.5028 11.4659 70.7959 11.8481C73.8535 11.8481 78.4398 11.848 79.9686 11.4658Z" fill="secondaryColor"/>
    </svg>