<svg width="170" height="150" viewBox="0 0 170 150" fill="none" xmlns="http://www.w3.org/2000/svg">
<path d="M85.0001 14.5019C92.3638 14.5019 98.7243 9.73971 101.009 2.7341C96.65 3.9512 91.0937 4.68577 85.0001 4.68577C78.9071 4.68577 73.3508 3.9512 68.9922 2.7341C71.2759 9.73912 77.6358 14.5019 85.0001 14.5019Z" fill="secondaryColor"/>
<path d="M169.788 23.1167C169.439 22.1213 168.711 21.3027 167.763 20.8569L135.352 5.68115C128.458 3.3123 121.434 1.44115 114.342 0.0735156C114.092 0.0239215 113.843 0 113.598 0C111.843 0 110.271 1.22935 109.879 3.03224C107.29 14.5964 97.197 23.2544 84.9995 23.2544C72.8026 23.2544 62.7094 14.597 60.1202 3.03224C59.7244 1.22935 58.1552 0 56.4007 0C56.1556 0 55.9071 0.0239215 55.6575 0.0735156C48.5658 1.44115 41.5421 3.3123 34.6369 5.68115L2.23738 20.8564C1.28363 21.3021 0.550766 22.1207 0.2177 23.1161C-0.126872 24.1232 -0.0647455 25.2101 0.420761 26.16L14.4912 54.3248C15.1499 55.6615 16.4896 56.4638 17.907 56.4638C18.2729 56.4638 18.6439 56.4101 19.0098 56.2986L34.6375 51.6006V146.104C34.6375 148.25 36.3638 150 38.4853 150H131.516C133.631 150 135.352 148.249 135.352 146.104V51.6018L150.991 56.2998C151.357 56.4112 151.727 56.4649 152.093 56.4649C153.507 56.4649 154.842 55.6627 155.51 54.326L169.585 26.1612C170.059 25.2107 170.127 24.1237 169.788 23.1167Z" fill="primaryColor"/>
</svg>
