<svg width="146" height="153" viewBox="0 0 146 153" fill="none" xmlns="http://www.w3.org/2000/svg">
    <path d="M94.8352 1.10901C94.245 3.26866 93.1355 4.59171 90.7749 6.05092C88.0366 7.72417 84.4957 8.79427 79.1844 9.53362C70.0253 10.8372 62.0701 10.0784 55.2952 7.27667C51.6126 5.75908 50.031 4.04692 50.2435 1.84836C50.3143 1.24521 50.2907 0.836624 50.1963 0.914444C50.1018 0.992279 49.8186 1.32303 49.5353 1.63434C49.1104 2.08183 48.8271 2.19856 47.9065 2.23749C46.9859 2.29585 44.9085 3.0741 36.7409 6.4595C27.747 10.1757 15.2122 15.818 13.2057 17.0632C12.7336 17.3356 12.4267 17.7053 12.4267 17.9582C12.4267 18.289 12.3795 18.3279 12.2143 18.1139C11.9074 17.7247 11.5061 18.0166 10.1842 19.5342C8.24846 21.7717 6.73768 25.3516 6.17114 29.0483C5.98229 30.2546 5.6282 31.7917 5.34493 32.4921C5.08526 33.1925 4.87281 34.107 4.87281 34.535C4.87281 35.644 4.32987 37.3562 3.33842 39.438C2.88991 40.4303 2.34697 41.7922 2.15812 42.4538C1.75682 43.9713 1.19028 47.8626 0.977823 50.5865C0.812581 52.8045 0.198826 58.0383 0.00997831 58.6609C-0.131658 59.1278 1.23749 59.8088 3.92857 60.6065C10.3966 62.4938 20.4055 62.7856 26.6375 61.2486C27.6526 60.9956 27.6998 60.8205 27.2041 59.517C27.0152 59.05 26.8028 58.4274 26.7319 58.1356C26.6139 57.727 26.4959 57.6492 26.071 57.727C25.5516 57.8243 25.5516 57.8243 25.9765 57.5519C26.4015 57.2795 26.4015 57.2017 26.0238 55.3338C25.3156 51.6177 25.1739 50.3336 25.1739 46.9482C25.1739 42.0646 25.5989 42.7067 25.7169 47.7653C25.8349 52.2208 26.4487 55.8981 27.6526 59.1473C29.0689 63.058 29.0689 62.9607 28.7621 66.9882C28.5024 70.6071 28.526 70.7822 29.2106 75.3739C29.8715 79.5959 29.9187 80.3547 29.7535 82.884C29.6591 84.4405 29.6119 87.2423 29.6827 89.1101C29.8715 95.3945 29.7299 104.519 29.4466 105.745C29.2814 106.387 28.7384 108.138 28.2427 109.637C27.7234 111.174 27.1096 113.683 26.85 115.357C26.5431 117.224 26.0474 119.19 25.5516 120.513C24.4658 123.412 24.2769 124.287 23.9936 127.867C23.7812 130.61 23.6868 131.097 23.0022 132.537C22.2704 134.074 22.2232 134.288 22.1996 136.875C22.1524 139.346 22.0816 139.833 21.3262 142.07L20.5 144.541L22.176 145.456C27.1096 148.18 34.5691 150.612 40.2818 151.351C44.4364 151.896 45.4751 151.935 59.7567 152.149C66.7677 152.265 74.8409 152.499 77.6972 152.674C84.9207 153.121 95.9919 153.102 100.359 152.654C112.445 151.429 120.613 148.53 123.871 144.327C124.744 143.199 124.791 142.479 124.13 141C123.776 140.261 123.658 140.125 123.375 140.339C123.115 140.533 123.092 140.494 123.257 140.183C123.351 139.969 123.398 139.658 123.375 139.502C123.351 139.346 123.351 138.14 123.351 136.836C123.375 134.735 123.328 134.346 122.761 133.14C121.746 130.941 121.699 130.766 121.486 127.439C121.321 124.871 121.156 123.879 120.636 122.478C119.433 119.092 118.89 117.205 118.748 115.668C118.583 113.8 118.229 112.594 116.883 109.15C116.317 107.71 115.726 105.979 115.585 105.317C115.372 104.325 115.254 92.7095 115.302 80.2574C115.302 79.3041 115.608 77.4557 116.081 75.4906C116.789 72.5138 116.86 71.969 116.907 67.9416C116.954 63.0775 116.978 63.0191 118.087 59.9255C119.551 55.8397 120.094 52.7656 120.235 47.9015C120.306 45.5278 120.448 43.5822 120.542 43.5822C120.636 43.5822 120.778 44.4188 120.849 45.4306C121.132 48.8743 120.259 55.1587 119.008 58.8554C118.701 59.8088 118.418 60.7038 118.418 60.8205C118.418 61.3459 123.328 62.0657 128.096 62.2019C134.682 62.3965 140.442 61.4821 145.187 59.4975C146.013 59.1473 146.084 59.0695 145.942 58.5052C145.871 58.155 145.541 55.3338 145.21 52.2403C144.408 44.4967 144.124 43.0958 142.59 39.3213C141.74 37.2589 141.197 35.5857 141.079 34.5545C140.961 33.6984 140.702 32.531 140.489 32.0057C140.277 31.4609 139.993 30.2352 139.875 29.2818C139.332 25.2933 137.373 20.935 135.201 18.8727C134.611 18.3084 134.446 18.2306 134.234 18.4835C134.045 18.717 133.997 18.6781 133.997 18.289C133.997 17.5885 133.337 17.2772 120.424 11.6349C106.402 5.50615 97.1486 1.75107 96.9833 2.10129C96.8653 2.39313 96.8417 2.33476 95.803 0.797714C95.5197 0.369675 95.2365 0 95.2129 0C95.1892 0 95.024 0.505859 94.8352 1.10901ZM48.7091 3.3465C48.6383 3.48268 48.5911 3.38541 48.5911 3.11302C48.5911 2.84062 48.6383 2.74335 48.7091 2.86008C48.7563 2.99628 48.7563 3.22975 48.7091 3.3465ZM96.8653 3.3465C96.7945 3.48268 96.7473 3.38541 96.7473 3.11302C96.7473 2.84062 96.7945 2.74335 96.8653 2.86008C96.9125 2.99628 96.9125 3.22975 96.8653 3.3465ZM48.7799 4.12474C48.7799 4.47496 48.7327 4.51387 48.5675 4.2804C48.4258 4.12474 48.4022 3.93018 48.4494 3.85236C48.6619 3.57997 48.7799 3.67725 48.7799 4.12474ZM96.7709 4.2804C96.7 4.49442 96.6056 4.66953 96.5584 4.66953C96.5112 4.66953 96.464 4.49442 96.464 4.2804C96.464 4.06638 96.5584 3.89127 96.6764 3.89127C96.7945 3.89127 96.8417 4.06638 96.7709 4.2804ZM49.016 5.29213C49.016 5.6618 48.9688 5.68126 48.7799 5.44778C48.473 5.07811 48.473 4.86409 48.7799 4.86409C48.9215 4.86409 49.016 5.05865 49.016 5.29213ZM96.3223 5.33104C96.2515 5.50615 96.0863 5.64233 95.9682 5.64233C95.8266 5.64233 95.8502 5.46724 95.9919 5.23376C96.2987 4.7668 96.5584 4.84464 96.3223 5.33104ZM95.5197 6.32332C95.3545 6.49841 95.1656 6.57625 95.0948 6.51788C95.024 6.47896 95.1184 6.30386 95.2837 6.12875C95.4489 5.95364 95.6378 5.87582 95.7086 5.93419C95.7794 5.9731 95.685 6.14821 95.5197 6.32332ZM49.5825 6.32332C49.6533 6.47896 49.6061 6.61516 49.5117 6.61516C49.3937 6.61516 49.252 6.47896 49.1576 6.32332C49.0868 6.16766 49.134 6.03146 49.2284 6.03146C49.3465 6.03146 49.4881 6.16766 49.5825 6.32332ZM94.6935 7.19885C94.4575 7.41287 94.2214 7.54906 94.1506 7.49069C93.9853 7.37396 94.5755 6.80972 94.8824 6.80972C95.0004 6.80972 94.9296 6.98483 94.6935 7.19885ZM50.2907 7.29613C50.3615 7.45178 50.3143 7.58798 50.2199 7.58798C50.1018 7.58798 49.9602 7.45178 49.8658 7.29613C49.795 7.14047 49.8422 7.00429 49.9366 7.00429C50.0546 7.00429 50.1963 7.14047 50.2907 7.29613ZM93.6313 8.07439C93.466 8.2495 93.2772 8.32732 93.2063 8.26895C93.1355 8.23004 93.23 8.05493 93.3952 7.87982C93.5604 7.70471 93.7493 7.62689 93.8201 7.68526C93.8909 7.72417 93.7965 7.89928 93.6313 8.07439ZM51.2821 8.30786C51.1169 8.44406 50.6684 8.17166 50.6684 7.93819C50.6684 7.82146 50.81 7.82146 51.0225 7.9771C51.2349 8.1133 51.3294 8.26895 51.2821 8.30786ZM92.805 8.7359C92.7342 8.85263 92.5454 8.94992 92.4037 8.94992C92.2621 8.94992 92.2621 8.83318 92.451 8.65808C92.7814 8.32732 93.0647 8.40514 92.805 8.7359ZM52.2264 9.08612C52.0611 9.22231 51.6126 8.94992 51.6126 8.71645C51.6126 8.5997 51.7543 8.5997 51.9667 8.75536C52.1792 8.89156 52.2736 9.0472 52.2264 9.08612ZM91.5067 9.43633C91.3415 9.61143 91.1526 9.68925 91.1054 9.65034C90.9402 9.51416 91.2707 9.14449 91.5539 9.14449C91.6956 9.14449 91.6956 9.26122 91.5067 9.43633ZM53.3831 9.55307C53.6427 9.88382 53.4303 9.90327 52.9346 9.61143C52.5333 9.37796 52.5333 9.33905 52.8401 9.33905C53.0526 9.33905 53.3123 9.43633 53.3831 9.55307ZM90.3264 10.02C90.1612 10.1951 89.9723 10.2729 89.9251 10.234C89.7599 10.0978 90.0904 9.72818 90.3736 9.72818C90.5153 9.72818 90.5153 9.84491 90.3264 10.02ZM54.4453 10.1173C54.6342 10.2146 54.7286 10.3313 54.6578 10.3897C54.587 10.4481 54.3273 10.3702 54.0676 10.2146C53.5719 9.90327 53.8788 9.82545 54.4453 10.1173ZM89.2642 10.5064C89.1933 10.6037 88.9573 10.701 88.7684 10.701C88.5796 10.701 88.4852 10.6037 88.556 10.5064C88.6268 10.3897 88.8628 10.3119 89.0517 10.3119C89.2405 10.3119 89.335 10.3897 89.2642 10.5064ZM55.7437 10.701C55.9325 10.9539 55.6256 10.9539 55.1535 10.701C54.8466 10.5453 54.8466 10.5064 55.2007 10.5064C55.4132 10.5064 55.6729 10.5843 55.7437 10.701ZM87.8714 10.9928C87.6117 11.1485 87.3521 11.2263 87.2812 11.1679C87.1396 11.0512 87.7298 10.701 88.0839 10.701C88.2255 10.7204 88.1075 10.8372 87.8714 10.9928ZM57.2072 11.4014C57.042 11.5376 56.3338 11.2652 56.3338 11.0707C56.3338 10.9539 56.5463 10.9734 56.8295 11.0901C57.0892 11.2263 57.2781 11.3625 57.2072 11.4014ZM86.7855 11.2847C86.7855 11.382 86.5967 11.4792 86.3842 11.4792C86.0301 11.4792 86.0065 11.4403 86.3134 11.2847C86.7619 11.0512 86.7855 11.0512 86.7855 11.2847ZM58.3403 11.6738C58.5292 11.9267 58.2223 11.9267 57.7502 11.6738C57.4433 11.5182 57.4433 11.4792 57.7974 11.4792C58.0098 11.4792 58.2695 11.5571 58.3403 11.6738ZM85.4872 11.6738C85.4164 11.7711 85.1567 11.8684 84.9443 11.8684C84.5902 11.8684 84.5902 11.8295 84.897 11.6738C85.3692 11.4209 85.676 11.4209 85.4872 11.6738ZM59.7567 12.0629C59.8275 12.1602 59.7331 12.2575 59.5442 12.2575C59.3554 12.2575 59.1193 12.1602 59.0485 12.0629C58.9777 11.9462 59.0721 11.8684 59.261 11.8684C59.4498 11.8684 59.6859 11.9462 59.7567 12.0629ZM83.9528 12.0629C83.4807 12.3159 83.1738 12.3159 83.3627 12.0629C83.4335 11.9462 83.6931 11.8684 83.9056 11.8684C84.2597 11.8684 84.2597 11.9073 83.9528 12.0629ZM83.0086 12.2575C83.0086 12.3548 82.7725 12.4521 82.4892 12.4521C82.0407 12.4521 82.0171 12.4131 82.3004 12.2575C82.7489 12.0046 83.0086 12.0046 83.0086 12.2575ZM61.055 12.4326C61.055 12.5299 60.8426 12.5688 60.5829 12.5104C60.3232 12.4521 60.1108 12.3742 60.1108 12.3353C60.1108 12.2964 60.3232 12.2575 60.5829 12.2575C60.8426 12.2575 61.055 12.3353 61.055 12.4326ZM62.3533 12.6466C62.4242 12.7439 62.3297 12.8412 62.1409 12.8412C61.952 12.8412 61.716 12.7439 61.6452 12.6466C61.5743 12.5299 61.6688 12.4521 61.8576 12.4521C62.0465 12.4521 62.2825 12.5299 62.3533 12.6466ZM81.5922 12.5299C81.5922 12.5688 81.3798 12.6466 81.1201 12.705C80.8604 12.7634 80.648 12.7245 80.648 12.6272C80.648 12.5299 80.8604 12.4521 81.1201 12.4521C81.3798 12.4521 81.5922 12.491 81.5922 12.5299ZM63.8877 12.9579C63.8877 12.9968 63.6753 13.0358 63.4156 13.0358C63.1559 13.0358 62.9435 12.9579 62.9435 12.8606C62.9435 12.7634 63.1559 12.7245 63.4156 12.7828C63.6753 12.8412 63.8877 12.919 63.8877 12.9579ZM79.9398 12.8412C79.4913 13.0941 79.2316 13.0941 79.2316 12.8412C79.2316 12.7245 79.4677 12.6466 79.7746 12.6466C80.1995 12.6466 80.2231 12.6855 79.9398 12.8412ZM64.832 13.0358C65.1152 13.1914 65.0916 13.2303 64.6667 13.2303C64.3599 13.2303 64.1238 13.133 64.1238 13.0358C64.1238 12.7828 64.3835 12.7828 64.832 13.0358ZM78.9956 12.919C78.9956 12.9579 78.7831 13.0358 78.5234 13.0941C78.2638 13.1525 78.0513 13.1136 78.0513 13.0163C78.0513 12.919 78.2638 12.8412 78.5234 12.8412C78.7831 12.8412 78.9956 12.8801 78.9956 12.919ZM66.4844 13.2303C66.4844 13.3276 66.3428 13.4249 66.1539 13.4249C65.9651 13.4249 65.729 13.3276 65.6582 13.2303C65.5874 13.1136 65.729 13.0358 65.9887 13.0358C66.2719 13.0358 66.4844 13.1136 66.4844 13.2303ZM76.1628 13.2303C76.1628 13.3276 75.9268 13.4249 75.6435 13.4249C75.195 13.4249 75.1714 13.386 75.4547 13.2303C75.9032 12.9774 76.1628 12.9774 76.1628 13.2303ZM77.414 13.172C77.2487 13.2109 76.9654 13.2109 76.8238 13.172C76.6586 13.1136 76.7766 13.0747 77.1071 13.0747C77.4376 13.0747 77.5556 13.1136 77.414 13.172ZM67.7355 13.3665C67.5703 13.4054 67.287 13.4054 67.1454 13.3665C66.9801 13.3081 67.0981 13.2692 67.4286 13.2692C67.7591 13.2692 67.8771 13.3081 67.7355 13.3665ZM69.1991 13.4249C69.2699 13.5222 69.1283 13.6194 68.8686 13.6194C68.5853 13.6194 68.3729 13.5222 68.3729 13.4249C68.3729 13.3081 68.5145 13.2303 68.7034 13.2303C68.8922 13.2303 69.1283 13.3081 69.1991 13.4249ZM70.6154 13.4249C70.7099 13.5416 70.4974 13.6194 70.1433 13.6194C69.7892 13.6194 69.5768 13.5416 69.6712 13.4249C69.742 13.3081 69.9545 13.2303 70.1433 13.2303C70.3322 13.2303 70.5446 13.3081 70.6154 13.4249ZM71.9138 13.4249C71.9138 13.5222 71.7013 13.6194 71.418 13.6194C71.1584 13.6194 71.0167 13.5222 71.0876 13.4249C71.1584 13.3081 71.3944 13.2303 71.5833 13.2303C71.7721 13.2303 71.9138 13.3081 71.9138 13.4249ZM73.3301 13.4249C73.3301 13.5222 73.1177 13.6194 72.858 13.6194C72.5983 13.6194 72.3859 13.5222 72.3859 13.4249C72.3859 13.3081 72.5983 13.2303 72.858 13.2303C73.1177 13.2303 73.3301 13.3081 73.3301 13.4249ZM74.5104 13.4249C74.0619 13.6778 73.8022 13.6778 73.8022 13.4249C73.8022 13.3081 74.0383 13.2303 74.3452 13.2303C74.7701 13.2303 74.7937 13.2692 74.5104 13.4249ZM12.6628 18.9116C12.6628 19.2812 12.6156 19.3007 12.4267 19.0672C12.1198 18.6976 12.1198 18.4835 12.4267 18.4835C12.5684 18.4835 12.6628 18.6781 12.6628 18.9116ZM134.163 19.6898C134.092 19.826 134.045 19.7287 134.045 19.4563C134.045 19.184 134.092 19.0867 134.163 19.2034C134.21 19.3396 134.21 19.5731 134.163 19.6898ZM13.1349 20.2735C13.1349 20.3708 13.0405 20.4292 12.8988 20.4292C12.7808 20.4292 12.6628 20.2346 12.6628 19.9817C12.6628 19.6315 12.71 19.612 12.8988 19.8455C13.0169 20.0011 13.1349 20.1957 13.1349 20.2735ZM134.234 20.6237C134.234 20.8378 134.139 21.0128 133.997 21.0128C133.879 21.0128 133.761 20.8378 133.761 20.6237C133.761 20.4097 133.879 20.2346 133.997 20.2346C134.139 20.2346 134.234 20.4097 134.234 20.6237ZM13.371 21.2463C13.371 21.616 13.3237 21.6355 13.1349 21.402C12.828 21.0323 12.828 20.8183 13.1349 20.8183C13.2765 20.8183 13.371 21.0128 13.371 21.2463ZM133.997 21.8106C133.997 22.0246 133.903 22.1608 133.761 22.0829C133.643 22.0246 133.596 21.8495 133.691 21.6938C133.856 21.2852 133.997 21.3242 133.997 21.8106ZM13.8431 22.4332C13.8431 22.5305 13.7487 22.5305 13.607 22.4721C13.489 22.4137 13.371 22.1997 13.371 22.0246C13.371 21.7327 13.4182 21.7327 13.607 21.9857C13.725 22.1413 13.8431 22.3553 13.8431 22.4332ZM133.761 22.7639C133.761 22.978 133.667 23.153 133.549 23.153C133.431 23.153 133.384 22.978 133.455 22.7639C133.525 22.5499 133.62 22.3748 133.667 22.3748C133.714 22.3748 133.761 22.5499 133.761 22.7639ZM14.3152 23.6006C14.3152 23.6978 14.2208 23.6978 14.0791 23.6395C13.9611 23.5811 13.8431 23.3671 13.8431 23.192C13.8431 22.9001 13.8903 22.9001 14.0791 23.153C14.1972 23.3087 14.3152 23.5227 14.3152 23.6006ZM133.431 24.048C133.337 24.2231 133.218 24.3399 133.171 24.2815C133.1 24.2231 133.1 24.0286 133.195 23.8535C133.289 23.6784 133.407 23.5616 133.455 23.62C133.525 23.6784 133.525 23.8729 133.431 24.048ZM14.7873 24.5539C14.7873 24.6512 14.6929 24.7096 14.5513 24.7096C14.4332 24.7096 14.3152 24.515 14.3152 24.2621C14.3152 23.9118 14.3624 23.8924 14.5513 24.1259C14.6693 24.2815 14.7873 24.4761 14.7873 24.5539ZM133.124 25.0987C133.053 25.3127 132.959 25.4878 132.912 25.4878C132.864 25.4878 132.817 25.3127 132.817 25.0987C132.817 24.8847 132.912 24.7096 133.03 24.7096C133.148 24.7096 133.195 24.8847 133.124 25.0987ZM15.2594 25.6435C15.2594 25.9353 15.2122 25.9353 15.0234 25.6824C14.7165 25.2933 14.7165 25.0403 15.0234 25.196C15.165 25.2543 15.2594 25.4684 15.2594 25.6435ZM132.605 26.3244C132.416 26.4801 132.345 26.4606 132.345 26.2466C132.345 26.0715 132.416 25.8769 132.51 25.7991C132.605 25.7213 132.723 25.7602 132.77 25.8769C132.841 26.0131 132.746 26.2077 132.605 26.3244ZM15.826 26.8303C15.6843 26.947 15.2594 26.4606 15.2594 26.1688C15.283 26.052 15.4247 26.1493 15.6135 26.3439C15.8024 26.5579 15.8968 26.7719 15.826 26.8303ZM132.133 27.3751C131.944 27.6669 131.897 27.6669 131.873 27.414C131.873 27.0832 132.109 26.7914 132.298 26.9276C132.345 26.986 132.274 27.1805 132.133 27.3751ZM16.4397 27.6864C16.4397 27.7837 16.3453 27.7837 16.2037 27.7253C16.0856 27.6669 15.9676 27.4529 15.9676 27.2778C15.9676 26.986 16.0148 26.986 16.2037 27.2389C16.3217 27.3945 16.4397 27.6086 16.4397 27.6864ZM131.779 28.1339C131.708 28.309 131.637 28.4841 131.637 28.523C131.637 28.5619 131.542 28.6008 131.424 28.6008C131.306 28.6008 131.259 28.4257 131.33 28.2117C131.401 27.9977 131.566 27.8226 131.684 27.8226C131.826 27.8226 131.849 27.9588 131.779 28.1339ZM17.1007 28.5619C17.2423 28.9121 16.7466 28.8343 16.5814 28.4841C16.4869 28.2895 16.5578 28.2117 16.723 28.2506C16.8646 28.2895 17.0535 28.4452 17.1007 28.5619ZM131.07 29.3013C130.976 29.4764 130.858 29.5931 130.811 29.5347C130.74 29.4764 130.74 29.2818 130.834 29.1067C130.929 28.9316 131.047 28.8148 131.094 28.8732C131.165 28.9316 131.165 29.1262 131.07 29.3013ZM17.8089 29.5347C17.9505 29.8849 17.4548 29.8071 17.2895 29.4569C17.1951 29.2623 17.2659 29.1845 17.4312 29.2234C17.5728 29.2623 17.7617 29.418 17.8089 29.5347ZM130.268 30.3908C130.102 30.527 129.984 30.5465 129.984 30.4297C129.984 30.1573 130.268 29.9239 130.433 30.0601C130.48 30.1184 130.409 30.2741 130.268 30.3908ZM18.4462 30.3714C18.7059 30.7021 18.4226 30.7799 18.0922 30.4492C17.9033 30.2741 17.9033 30.1573 18.0449 30.1573C18.1866 30.1573 18.3754 30.2546 18.4462 30.3714ZM19.3669 31.6944C19.2252 31.8111 18.8003 31.3247 18.8003 31.0329C18.8239 30.9161 18.9656 31.0134 19.1544 31.208C19.3433 31.422 19.4377 31.636 19.3669 31.6944ZM129.63 31.3053C129.56 31.422 129.371 31.5193 129.229 31.5193C129.087 31.5193 129.087 31.4025 129.276 31.2274C129.607 30.8967 129.89 30.9745 129.63 31.3053ZM128.804 32.2003C128.639 32.3754 128.45 32.4532 128.379 32.3948C128.308 32.3559 128.403 32.1808 128.568 32.0057C128.733 31.8306 128.922 31.7528 128.993 31.8111C129.064 31.85 128.969 32.0251 128.804 32.2003ZM20.0751 32.2197C20.3111 32.7061 20.0514 32.7839 19.7446 32.317C19.6029 32.0835 19.5793 31.9084 19.721 31.9084C19.839 31.9084 20.0042 32.0446 20.0751 32.2197ZM21.1609 33.3093C21.1609 33.426 20.9957 33.4065 20.8068 33.2704C20.618 33.1342 20.4527 32.9396 20.4527 32.8423C20.4527 32.7256 20.618 32.745 20.8068 32.8812C20.9957 33.0174 21.1609 33.212 21.1609 33.3093ZM127.86 32.9785C127.695 33.1536 127.506 33.2314 127.459 33.1925C127.293 33.0563 127.624 32.6867 127.907 32.6867C128.049 32.6867 128.049 32.8034 127.86 32.9785ZM126.916 33.7568C126.75 33.9319 126.562 34.0097 126.514 33.9708C126.349 33.8346 126.68 33.4649 126.963 33.4649C127.105 33.4649 127.105 33.5816 126.916 33.7568ZM21.9871 33.8735C22.2468 34.2043 21.9635 34.2821 21.633 33.9513C21.4442 33.7762 21.4442 33.6595 21.5858 33.6595C21.7275 33.6595 21.9163 33.7568 21.9871 33.8735ZM120.542 57.3962C120.825 57.5519 120.802 57.5908 120.377 57.5908C120.07 57.5908 119.834 57.4935 119.834 57.3962C119.834 57.1433 120.094 57.1433 120.542 57.3962ZM121.84 57.7853C121.911 57.8826 121.817 57.9799 121.628 57.9799C121.439 57.9799 121.203 57.8826 121.132 57.7853C121.061 57.6686 121.156 57.5908 121.345 57.5908C121.534 57.5908 121.77 57.6686 121.84 57.7853ZM135.414 57.6686C135.414 57.7075 135.249 57.7853 135.06 57.8632C134.871 57.9215 134.706 57.8826 134.706 57.7853C134.706 57.6686 134.871 57.5908 135.06 57.5908C135.249 57.5908 135.414 57.6297 135.414 57.6686ZM25.41 57.8632C25.41 57.9021 25.1975 57.9799 24.9379 58.0383C24.6782 58.0966 24.4658 58.0577 24.4658 57.9605C24.4658 57.8632 24.6782 57.7853 24.9379 57.7853C25.1975 57.7853 25.41 57.8243 25.41 57.8632ZM123.375 58.0966C123.375 58.1356 123.162 58.1745 122.903 58.1745C122.643 58.1745 122.431 58.0966 122.431 57.9994C122.431 57.9021 122.643 57.8632 122.903 57.9215C123.162 57.9799 123.375 58.0577 123.375 58.0966ZM134.115 57.9799C134.045 58.0772 133.809 58.1745 133.62 58.1745C133.431 58.1745 133.337 58.0772 133.407 57.9799C133.478 57.8632 133.714 57.7853 133.903 57.7853C134.092 57.7853 134.186 57.8632 134.115 57.9799ZM23.8756 58.1745C23.8048 58.2718 23.5687 58.369 23.3799 58.369C23.191 58.369 23.0966 58.2718 23.1674 58.1745C23.2383 58.0577 23.4743 57.9799 23.6632 57.9799C23.852 57.9799 23.9464 58.0577 23.8756 58.1745ZM124.791 58.2912C124.791 58.3301 124.579 58.369 124.319 58.369C124.059 58.369 123.847 58.2912 123.847 58.1939C123.847 58.0966 124.059 58.0577 124.319 58.1161C124.579 58.1745 124.791 58.2523 124.791 58.2912ZM132.817 58.1745C132.369 58.4274 132.109 58.4274 132.109 58.1745C132.109 58.0577 132.345 57.9799 132.652 57.9799C133.077 57.9799 133.1 58.0188 132.817 58.1745ZM13.0169 58.369C13.2057 58.622 12.8988 58.622 12.4267 58.369C12.1198 58.2134 12.1198 58.1745 12.4739 58.1745C12.6864 58.1745 12.9461 58.2523 13.0169 58.369ZM22.5773 58.369C22.5773 58.4663 22.3648 58.5636 22.0816 58.5636C21.8219 58.5636 21.6803 58.4663 21.7511 58.369C21.8219 58.2523 22.058 58.1745 22.2468 58.1745C22.4357 58.1745 22.5773 58.2523 22.5773 58.369ZM125.971 58.369C125.971 58.4663 125.806 58.5636 125.617 58.5636C125.429 58.5636 125.263 58.4663 125.263 58.369C125.263 58.2523 125.429 58.1745 125.617 58.1745C125.806 58.1745 125.971 58.2523 125.971 58.369ZM130.221 58.369C130.221 58.4663 129.984 58.5636 129.701 58.5636C129.253 58.5636 129.229 58.5247 129.512 58.369C129.961 58.1161 130.221 58.1161 130.221 58.369ZM131.401 58.369C130.952 58.622 130.693 58.622 130.693 58.369C130.693 58.2523 130.929 58.1745 131.236 58.1745C131.66 58.1745 131.684 58.2134 131.401 58.369ZM14.3152 58.5441C14.3152 58.6414 14.1027 58.6803 13.8431 58.622C13.5834 58.5636 13.371 58.4858 13.371 58.4469C13.371 58.408 13.5834 58.369 13.8431 58.369C14.1027 58.369 14.3152 58.4469 14.3152 58.5441ZM15.7316 58.5636C15.7316 58.6609 15.5191 58.7582 15.2358 58.7582C14.9762 58.7582 14.8345 58.6609 14.9053 58.5636C14.9762 58.4469 15.2122 58.369 15.4011 58.369C15.5899 58.369 15.7316 58.4469 15.7316 58.5636ZM19.8626 58.5636C19.9334 58.6803 19.7682 58.7582 19.4613 58.7582C19.0364 58.7582 18.9892 58.7193 19.2725 58.5636C19.721 58.3301 19.6974 58.3301 19.8626 58.5636ZM21.1609 58.5636C20.7124 58.8165 20.4527 58.8165 20.4527 58.5636C20.4527 58.4469 20.6888 58.369 20.9957 58.369C21.4206 58.369 21.4442 58.408 21.1609 58.5636ZM127.223 58.5052C127.057 58.5441 126.774 58.5441 126.632 58.5052C126.467 58.4469 126.585 58.408 126.916 58.408C127.246 58.408 127.364 58.4469 127.223 58.5052ZM128.639 58.5052C128.474 58.5441 128.19 58.5441 128.049 58.5052C127.884 58.4469 128.002 58.408 128.332 58.408C128.663 58.408 128.781 58.4469 128.639 58.5052ZM16.9827 58.6998C16.8174 58.7387 16.5342 58.7387 16.3925 58.6998C16.2273 58.6414 16.3453 58.6025 16.6758 58.6025C17.0063 58.6025 17.1243 58.6414 16.9827 58.6998ZM18.399 58.6998C18.2338 58.7387 17.9505 58.7387 17.8089 58.6998C17.6436 58.6414 17.7617 58.6025 18.0922 58.6025C18.4226 58.6025 18.5407 58.6414 18.399 58.6998ZM122.785 141.039C122.714 141.156 122.525 141.253 122.383 141.253C122.242 141.253 122.242 141.136 122.431 140.961C122.761 140.63 123.044 140.708 122.785 141.039ZM121.958 141.739C121.793 141.895 121.557 142.031 121.439 142.031C121.297 142.031 121.321 141.895 121.486 141.739C121.652 141.584 121.888 141.448 122.006 141.448C122.147 141.448 122.124 141.584 121.958 141.739ZM120.896 142.596C120.825 142.712 120.636 142.81 120.495 142.81C120.353 142.81 120.353 142.693 120.542 142.518C120.873 142.187 121.156 142.265 120.896 142.596ZM120.07 143.179C120.07 143.277 119.905 143.413 119.692 143.471C119.126 143.646 119.031 143.607 119.362 143.296C119.692 142.965 120.07 142.907 120.07 143.179ZM118.654 144.074C118.488 144.249 118.299 144.327 118.252 144.288C118.087 144.152 118.418 143.782 118.701 143.782C118.842 143.782 118.842 143.899 118.654 144.074ZM117.615 144.658C117.355 144.814 117.096 144.891 117.025 144.833C116.883 144.716 117.473 144.366 117.827 144.366C117.969 144.386 117.851 144.502 117.615 144.658ZM116.435 145.242C116.175 145.397 115.915 145.475 115.844 145.417C115.703 145.3 116.293 144.95 116.647 144.95C116.789 144.969 116.671 145.086 116.435 145.242ZM115.349 145.728C114.877 145.981 114.57 145.981 114.759 145.728C114.829 145.611 115.089 145.533 115.302 145.533C115.656 145.533 115.656 145.572 115.349 145.728ZM113.932 146.312C113.366 146.604 113.059 146.526 113.555 146.214C113.814 146.059 114.074 145.981 114.145 146.039C114.216 146.098 114.121 146.214 113.932 146.312ZM112.87 146.701C112.799 146.798 112.54 146.895 112.327 146.895C111.973 146.895 111.973 146.857 112.28 146.701C112.752 146.448 113.059 146.448 112.87 146.701ZM111.572 147.09C111.572 147.187 111.336 147.285 111.052 147.285C110.604 147.285 110.58 147.246 110.864 147.09C111.312 146.837 111.572 146.837 111.572 147.09ZM110.273 147.479C110.203 147.576 109.943 147.674 109.731 147.674C109.376 147.674 109.376 147.635 109.683 147.479C110.155 147.226 110.462 147.226 110.273 147.479ZM108.857 147.868C108.786 147.966 108.55 148.063 108.361 148.063C108.173 148.063 108.078 147.966 108.149 147.868C108.22 147.751 108.456 147.674 108.645 147.674C108.834 147.674 108.928 147.751 108.857 147.868ZM107.795 148.043C107.795 148.141 107.582 148.257 107.323 148.316C107.063 148.374 106.851 148.335 106.851 148.257C106.851 148.16 107.039 148.043 107.276 148.004C107.488 147.946 107.7 147.907 107.748 147.888C107.771 147.888 107.795 147.946 107.795 148.043ZM52.7929 148.257C52.7929 148.355 52.5805 148.452 52.2972 148.452C52.0375 148.452 51.8959 148.355 51.9667 148.257C52.0375 148.141 52.2736 148.063 52.4624 148.063C52.6513 148.063 52.7929 148.141 52.7929 148.257ZM54.044 148.394C53.8788 148.432 53.5955 148.432 53.4539 148.394C53.2887 148.335 53.4067 148.296 53.7372 148.296C54.0676 148.296 54.1857 148.335 54.044 148.394ZM55.3896 148.452C55.3896 148.549 55.2243 148.646 55.0355 148.646C54.8466 148.646 54.6814 148.549 54.6814 148.452C54.6814 148.335 54.8466 148.257 55.0355 148.257C55.2243 148.257 55.3896 148.335 55.3896 148.452ZM106.26 148.452C106.19 148.549 105.954 148.646 105.765 148.646C105.576 148.646 105.481 148.549 105.552 148.452C105.623 148.335 105.859 148.257 106.048 148.257C106.237 148.257 106.331 148.335 106.26 148.452ZM56.6407 148.588C56.4755 148.627 56.1922 148.627 56.0505 148.588C55.8853 148.53 56.0033 148.491 56.3338 148.491C56.6643 148.491 56.7823 148.53 56.6407 148.588ZM58.2223 148.627C58.2223 148.724 58.0098 148.763 57.7502 148.705C57.4905 148.646 57.2781 148.569 57.2781 148.53C57.2781 148.491 57.4905 148.452 57.7502 148.452C58.0098 148.452 58.2223 148.53 58.2223 148.627ZM59.6387 148.763C59.6387 148.802 59.4262 148.841 59.1665 148.841C58.9069 148.841 58.6944 148.763 58.6944 148.666C58.6944 148.569 58.9069 148.53 59.1665 148.588C59.4262 148.646 59.6387 148.724 59.6387 148.763ZM104.962 148.646C104.962 148.744 104.726 148.841 104.443 148.822C103.923 148.822 103.923 148.802 104.372 148.646C104.632 148.549 104.868 148.471 104.915 148.471C104.939 148.452 104.962 148.53 104.962 148.646ZM60.8898 148.783C60.7245 148.822 60.4413 148.822 60.2996 148.783C60.1344 148.724 60.2524 148.685 60.5829 148.685C60.9134 148.685 61.0314 148.724 60.8898 148.783ZM62.4714 148.841C62.4714 148.938 62.2589 149.036 61.9993 149.036C61.7396 149.036 61.5271 148.938 61.5271 148.841C61.5271 148.724 61.7396 148.646 61.9993 148.646C62.2589 148.646 62.4714 148.724 62.4714 148.841ZM63.8877 148.958C63.8877 148.997 63.6753 149.036 63.4156 149.036C63.1559 149.036 62.9435 148.958 62.9435 148.861C62.9435 148.763 63.1559 148.724 63.4156 148.783C63.6753 148.841 63.8877 148.919 63.8877 148.958ZM103.782 148.841C103.782 148.938 103.546 149.036 103.262 149.036C102.814 149.036 102.79 148.997 103.074 148.841C103.522 148.588 103.782 148.588 103.782 148.841ZM65.1388 148.977C64.9736 149.016 64.6431 149.016 64.4307 148.977C64.1946 148.919 64.3362 148.88 64.7139 148.88C65.1152 148.88 65.2805 148.919 65.1388 148.977ZM66.4844 149.036C66.4844 149.133 66.3428 149.23 66.1539 149.23C65.9651 149.23 65.729 149.133 65.6582 149.036C65.5874 148.919 65.729 148.841 65.9887 148.841C66.2719 148.841 66.4844 148.919 66.4844 149.036ZM67.6647 149.036C67.948 149.191 67.9244 149.23 67.4994 149.23C67.1926 149.23 66.9565 149.133 66.9565 149.036C66.9565 148.783 67.2162 148.783 67.6647 149.036ZM102.365 149.036C102.365 149.133 102.129 149.23 101.846 149.211C101.327 149.211 101.327 149.191 101.775 149.036C102.035 148.938 102.271 148.861 102.318 148.861C102.342 148.841 102.365 148.919 102.365 149.036ZM69.1519 149.172C68.9866 149.211 68.7034 149.211 68.5617 149.172C68.3965 149.113 68.5145 149.075 68.845 149.075C69.1755 149.075 69.2935 149.113 69.1519 149.172ZM70.7335 149.23C70.7335 149.327 70.5918 149.425 70.403 149.425C70.2141 149.425 69.9781 149.327 69.9073 149.23C69.8364 149.113 69.9781 149.036 70.2377 149.036C70.521 149.036 70.7335 149.113 70.7335 149.23ZM71.9138 149.23C71.9138 149.327 71.7485 149.425 71.5597 149.425C71.3708 149.425 71.2056 149.327 71.2056 149.23C71.2056 149.113 71.3708 149.036 71.5597 149.036C71.7485 149.036 71.9138 149.113 71.9138 149.23ZM100.949 149.23C100.949 149.327 100.713 149.425 100.43 149.425C99.9813 149.425 99.9577 149.386 100.241 149.23C100.689 148.977 100.949 148.977 100.949 149.23ZM73.2593 149.347C73.1885 149.405 72.976 149.425 72.8108 149.366C72.6219 149.308 72.6928 149.25 72.9524 149.25C73.2121 149.23 73.3537 149.289 73.2593 149.347ZM74.5812 149.366C74.416 149.405 74.1327 149.405 73.9911 149.366C73.8258 149.308 73.9439 149.269 74.2744 149.269C74.6048 149.269 74.7229 149.308 74.5812 149.366ZM76.1628 149.425C76.1628 149.522 76.0212 149.619 75.8324 149.619C75.6435 149.619 75.4074 149.522 75.3366 149.425C75.2658 149.308 75.4074 149.23 75.6671 149.23C75.9504 149.23 76.1628 149.308 76.1628 149.425ZM77.3431 149.425C77.6264 149.58 77.6028 149.619 77.1779 149.619C76.871 149.619 76.635 149.522 76.635 149.425C76.635 149.172 76.8946 149.172 77.3431 149.425ZM99.4147 149.425C99.3439 149.522 99.1078 149.619 98.919 149.619C98.7301 149.619 98.6357 149.522 98.7065 149.425C98.7774 149.308 99.0134 149.23 99.2023 149.23C99.3911 149.23 99.4855 149.308 99.4147 149.425ZM78.8303 149.561C78.6651 149.6 78.3818 149.6 78.2402 149.561C78.0749 149.503 78.1929 149.464 78.5234 149.464C78.8539 149.464 78.9719 149.503 78.8303 149.561ZM80.2467 149.561C80.0814 149.6 79.7982 149.6 79.6565 149.561C79.4913 149.503 79.6093 149.464 79.9398 149.464C80.2703 149.464 80.3883 149.503 80.2467 149.561ZM81.5922 149.619C81.5922 149.717 81.427 149.814 81.2381 149.814C81.0493 149.814 80.884 149.717 80.884 149.619C80.884 149.503 81.0493 149.425 81.2381 149.425C81.427 149.425 81.5922 149.503 81.5922 149.619ZM83.0086 149.619C83.0086 149.717 82.7961 149.814 82.5365 149.814C82.2768 149.814 82.0643 149.717 82.0643 149.619C82.0643 149.503 82.2768 149.425 82.5365 149.425C82.7961 149.425 83.0086 149.503 83.0086 149.619ZM84.1889 149.619C84.4721 149.775 84.4485 149.814 84.0236 149.814C83.7168 149.814 83.4807 149.717 83.4807 149.619C83.4807 149.366 83.7404 149.366 84.1889 149.619ZM96.8181 149.619C96.7473 149.717 96.5112 149.814 96.3223 149.814C96.1335 149.814 95.9919 149.717 95.9919 149.619C95.9919 149.503 96.2043 149.425 96.4876 149.425C96.7472 149.425 96.8889 149.503 96.8181 149.619ZM98.1872 149.561C98.022 149.6 97.7387 149.6 97.5971 149.561C97.4318 149.503 97.5499 149.464 97.8803 149.464C98.2108 149.464 98.3288 149.503 98.1872 149.561ZM85.676 149.755C85.5108 149.794 85.2275 149.794 85.0859 149.755C84.9207 149.697 85.0387 149.658 85.3692 149.658C85.6996 149.658 85.8177 149.697 85.676 149.755ZM87.0924 149.755C86.9272 149.794 86.6439 149.794 86.5023 149.755C86.337 149.697 86.455 149.658 86.7855 149.658C87.116 149.658 87.234 149.697 87.0924 149.755ZM88.674 149.814C88.674 149.911 88.4615 150.008 88.2019 150.008C87.9422 150.008 87.7298 149.911 87.7298 149.814C87.7298 149.697 87.9422 149.619 88.2019 149.619C88.4615 149.619 88.674 149.697 88.674 149.814ZM89.8543 149.814C89.8543 149.911 89.6891 150.008 89.5002 150.008C89.3114 150.008 89.1461 149.911 89.1461 149.814C89.1461 149.697 89.3114 149.619 89.5002 149.619C89.6891 149.619 89.8543 149.697 89.8543 149.814ZM91.2707 149.814C91.2707 149.911 91.1054 150.008 90.9166 150.008C90.7277 150.008 90.5625 149.911 90.5625 149.814C90.5625 149.697 90.7277 149.619 90.9166 149.619C91.1054 149.619 91.2707 149.697 91.2707 149.814ZM92.687 149.814C92.687 149.911 92.4746 150.008 92.2149 150.008C91.9552 150.008 91.7428 149.911 91.7428 149.814C91.7428 149.697 91.9552 149.619 92.2149 149.619C92.4746 149.619 92.687 149.697 92.687 149.814ZM93.9381 149.755C93.7729 149.794 93.4896 149.794 93.348 149.755C93.1827 149.697 93.3008 149.658 93.6313 149.658C93.9617 149.658 94.0798 149.697 93.9381 149.755ZM95.3545 149.755C95.1892 149.794 94.906 149.794 94.7643 149.755C94.5991 149.697 94.7171 149.658 95.0476 149.658C95.3781 149.658 95.4961 149.697 95.3545 149.755Z" fill="primaryColor" />
</svg>
    