<svg width="150" height="157" viewBox="0 0 150 157" fill="secondaryColor" xmlns="http://www.w3.org/2000/svg">
    <path d="M149.437 66.8559C146.778 58.1191 140.32 41.785 136.902 33.8078C135.762 31.1488 135.002 28.4897 133.863 25.8307C132.343 21.2723 131.584 18.6133 128.165 15.9542C126.645 14.4348 121.707 12.1556 116.009 9.49658C109.552 6.83754 102.334 3.79863 98.1556 1.89932C97.3959 1.51945 97.0161 1.13958 96.6362 0.759715C96.2563 0.379852 95.4966 0 95.1167 0C95.1167 0 93.5973 4.55835 90.9382 6.45766C88.2792 8.35698 82.5812 11.3959 75.7437 11.7758C68.5263 12.1556 63.2082 9.49659 59.7895 7.21741C56.3707 4.93823 55.2311 3.03891 54.4714 0C54.0915 0 53.3318 0.379852 52.9519 0.759715C52.572 1.13958 51.8123 1.51945 51.4324 1.89932C48.0137 3.41877 42.6956 5.69794 37.3775 7.97712C30.1601 11.016 23.3226 14.4348 21.4232 15.9542C17.6246 18.2334 17.2447 20.8925 15.7253 25.8307C14.9656 28.4897 13.826 31.1488 12.6864 33.8078C9.6475 42.1648 2.80995 57.7392 0.150904 66.4761C-0.608823 68.3754 1.67037 68.7552 3.18982 69.1351C3.56968 69.1351 3.94953 69.515 4.32939 69.515C4.70926 69.515 5.46899 69.8948 5.84885 69.8948C8.12803 70.6546 10.4072 71.0344 12.6864 71.7942C15.7253 72.5539 18.7642 73.6935 21.8031 74.4532C23.3226 74.8331 25.9816 76.7324 27.1212 74.0733C27.8809 72.174 31.2997 63.4371 31.6796 61.9177C32.0594 60.7781 32.4393 59.6385 33.199 58.4989C33.9588 61.158 34.3386 64.1969 34.7185 66.8559C35.858 80.9109 35.0983 94.586 35.4782 109.78C35.8581 118.137 34.3386 108.641 33.5789 137.51C33.5789 140.17 32.4393 142.069 32.4393 144.348C32.4393 146.247 35.4782 148.527 40.0365 150.046C49.1533 153.465 56.7506 156.884 74.984 156.884C95.4966 156.504 103.094 153.085 111.831 149.286C114.87 147.767 117.529 146.247 117.529 144.728C117.529 142.449 116.389 140.17 116.389 137.89C114.87 109.021 114.11 118.517 114.49 110.16C115.249 94.9658 114.49 81.6706 115.249 67.2358C115.629 64.1969 116.009 61.5379 116.769 58.4989C116.769 58.4989 116.769 58.4989 116.769 58.8788C117.529 60.0184 117.909 61.158 118.288 62.2976C118.668 63.817 122.087 72.9337 122.847 74.8331C123.606 77.4921 126.645 75.5928 128.165 75.2129C131.204 74.4532 134.243 73.3136 137.282 72.5539C139.561 71.7942 141.84 71.4143 144.119 70.6546C144.499 70.6546 145.259 70.2747 145.639 70.2747C146.018 70.2747 146.398 69.8948 146.778 69.8948C147.918 69.1351 150.197 68.3754 149.437 66.8559Z" fill="primaryColor"/>
    <path d="M74.984 156.884C74.984 156.884 65.4874 156.884 62.0687 156.124C58.27 155.744 52.1922 154.604 48.3936 153.085C44.5949 151.565 41.556 150.806 37.7574 148.906C34.3386 147.007 32.4393 146.247 32.4393 144.348C32.4393 142.829 33.199 140.549 33.5789 138.65C33.9588 135.611 33.9588 126.115 34.3386 123.076C34.7185 120.037 34.7185 117.378 35.4782 113.579C35.8581 112.44 35.4782 109.021 35.4782 105.222C35.4782 96.4853 35.4782 83.9498 35.4782 83.9498H75.3639V156.884H74.984Z" fill="secondaryColor"/>
    <path opacity="0.5" d="M114.11 11.3959H74.984V83.9498H114.11V11.3959Z" fill="primaryColor"/>
    <path d="M114.87 84.3297L115.629 66.856L117.149 58.8788L120.568 67.9956L123.607 75.5928C123.607 75.5928 123.607 77.1123 128.925 75.2129C134.243 73.3136 146.398 70.2747 146.398 70.2747C146.398 70.2747 150.957 69.515 149.817 66.856C149.057 64.1969 135.382 28.4898 135.382 28.4898C135.382 28.4898 133.483 21.6522 131.204 18.6133C129.304 15.9543 122.467 12.5355 117.529 10.6362C112.59 8.357 100.435 3.41878 98.9154 2.65906C97.396 1.89933 95.1168 0.379883 95.1168 0.379883C95.1168 0.379883 95.1168 2.65905 92.8376 4.93823C90.5584 7.21741 87.5195 9.11673 83.7209 10.6362C79.9222 12.1556 74.984 12.1556 74.984 12.1556V84.7095H114.87V84.3297Z" fill="secondaryColor"/>
    </svg>