<svg width="150" height="158" viewBox="0 0 150 158" fill="secondaryColor" xmlns="http://www.w3.org/2000/svg">
<path d="M149.865 67.0471C147.198 58.2853 140.722 41.9045 137.293 33.9045C136.15 31.2379 135.388 28.5712 134.246 25.9046C132.722 21.3332 131.96 18.6665 128.531 15.9999C127.008 14.4761 122.055 12.1904 116.341 9.52374C109.865 6.85709 102.627 3.8095 98.4364 1.90475C97.6745 1.5238 97.2935 1.14285 96.9126 0.761902C96.5316 0.380953 95.7697 0 95.3888 0C95.3888 0 93.865 4.5714 91.1983 6.47615C88.5317 8.3809 82.8174 11.4285 75.9603 11.8094C68.7223 12.1904 63.389 9.52374 59.9605 7.23804C56.5319 4.95234 55.3891 3.0476 54.6272 0C54.2462 0 53.4843 0.380953 53.1033 0.761902C52.7224 1.14285 51.9605 1.5238 51.5795 1.90475C48.151 3.42855 42.8177 5.71425 37.4844 7.99995C30.2464 11.0475 23.3893 14.4761 21.4845 15.9999C17.675 18.2856 17.2941 20.9522 15.7703 25.9046C15.0084 28.5712 13.8655 31.2379 12.7227 33.9045C9.67509 42.2854 2.81798 57.9044 0.151335 66.6662C-0.610564 68.571 1.67515 68.9519 3.19894 69.3328C3.57989 69.3328 3.96083 69.7138 4.34178 69.7138C4.72273 69.7138 5.48463 70.0947 5.86558 70.0947C8.15128 70.8566 10.437 71.2376 12.7227 71.9995C15.7703 72.7614 18.8179 73.9042 21.8655 74.6661C23.3893 75.0471 26.0559 76.9519 27.1988 74.2852C27.9607 72.3805 31.3892 63.6186 31.7702 62.0948C32.1511 60.952 32.5321 59.8091 33.294 58.6663C34.0559 61.3329 34.4368 64.3805 34.8178 67.0471C35.9606 81.1423 35.1987 94.8565 35.5797 110.094C35.9606 118.475 34.4368 108.952 33.6749 137.904C33.6749 140.57 32.5321 142.475 32.5321 144.761C32.5321 146.666 35.5797 148.951 40.1511 150.475C49.2938 153.904 56.9129 157.332 75.1984 157.332C95.7697 156.951 103.389 153.523 112.151 149.713C115.198 148.189 117.865 146.666 117.865 145.142C117.865 142.856 116.722 140.57 116.722 138.285C115.198 109.333 114.436 118.856 114.817 110.475C115.579 95.2374 114.817 81.9042 115.579 67.4281C115.96 64.3805 116.341 61.7139 117.103 58.6663C117.103 58.6663 117.103 58.6663 117.103 59.0472C117.865 60.1901 118.246 61.3329 118.627 62.4757C119.008 63.9995 122.436 73.1423 123.198 75.0471C123.96 77.7137 127.008 75.809 128.531 75.428C131.579 74.6661 134.627 73.5233 137.674 72.7614C139.96 71.9995 142.246 71.6185 144.531 70.8567C144.912 70.8567 145.674 70.4757 146.055 70.4757C146.436 70.4757 146.817 70.0947 147.198 70.0947C147.96 69.7138 150.626 68.9519 149.865 67.0471Z" fill="primaryColor"/>
<path d="M101.865 3.80951C99 13.5 96.9683 21.6431 90.5 37.5C85.1667 53.8808 79.6666 63.9763 69 81.5C62.1429 92.9285 51.5 109.5 40.532 121.523C30.6273 131.047 33.294 135.618 33.294 135.618C33.294 135.618 33.294 135.618 33.294 137.142C33.294 138.666 31.7702 143.999 32.1511 145.523C32.5321 148.189 37.8654 151.999 39.7701 151.237C41.6748 150.475 49.2938 141.713 56.5319 134.475C63.7699 127.237 74.4365 109.333 79.3889 102.095C82.4365 97.9041 92.3411 81.5232 97.6744 69.3328C103.389 56.3806 109.103 43.0473 113.674 30.095C117.865 18.2856 120.151 11.8095 120.151 11.8095L101.865 3.80951Z" fill="secondaryColor"/>
</svg>