<svg width="150" height="158" viewBox="0 0 150 158" fill="secondaryColor" xmlns="http://www.w3.org/2000/svg">
    <path d="M149.957 67.0887C147.289 58.3214 140.809 41.9305 137.378 33.9256C136.235 31.2573 135.472 28.5889 134.329 25.9206C132.804 21.3464 132.042 18.6781 128.611 16.0098C127.086 14.4851 122.131 12.1979 116.413 9.52965C109.933 6.86135 102.69 3.81186 98.4974 1.90593C97.735 1.52474 97.3538 1.14356 96.9726 0.762375C96.5915 0.381189 95.8291 0 95.4479 0C95.4479 0 93.9232 4.57423 91.2549 6.48016C88.5866 8.38609 82.8688 11.4356 76.0074 11.8168C68.7649 12.198 63.4283 9.52965 59.9976 7.24253C56.5669 4.95542 55.4234 3.04949 54.661 0C54.2798 0 53.5175 0.381189 53.1363 0.762375C52.7551 1.14356 51.9927 1.52474 51.6115 1.90593C48.1809 3.43067 42.8443 5.71779 37.5077 8.00491C30.2651 11.0544 23.4038 14.4851 21.4978 16.0098C17.686 18.2969 17.3048 20.9652 15.7801 25.9206C15.0177 28.5889 13.8741 31.2573 12.7306 33.9256C9.68108 42.3116 2.81973 57.9403 0.15143 66.7075C-0.610942 68.6135 1.67617 68.9947 3.20092 69.3758C3.5821 69.3758 3.96329 69.757 4.34448 69.757C4.72566 69.757 5.48803 70.1382 5.86922 70.1382C8.15633 70.9006 10.4434 71.2818 12.7306 72.0441C15.7801 72.8065 18.8295 73.9501 21.879 74.7124C23.4038 75.0936 26.0721 76.9996 27.2156 74.3313C27.978 72.4253 31.4087 63.658 31.7899 62.1333C32.1711 60.9897 32.5522 59.8462 33.3146 58.7026C34.077 61.3709 34.4582 64.4204 34.8393 67.0887C35.9829 81.1926 35.2205 94.9153 35.6017 110.163C35.9829 118.549 34.4582 109.019 33.6958 137.989C33.6958 140.658 32.5522 142.564 32.5522 144.851C32.5522 146.757 35.6017 149.044 40.1759 150.568C49.3244 153.999 56.9481 157.43 75.2451 157.43C95.8291 157.049 103.453 153.618 112.22 149.806C115.27 148.281 117.938 146.757 117.938 145.232C117.938 142.945 116.794 140.658 116.794 138.37C115.27 109.4 114.507 118.93 114.888 110.544C115.651 95.2965 114.888 81.955 115.651 67.4699C116.032 64.4204 116.413 61.7521 117.175 58.7026C117.175 58.7026 117.175 58.7026 117.175 59.0838C117.938 60.2274 118.319 61.3709 118.7 62.5145C119.081 64.0392 122.512 73.1877 123.274 75.0936C124.037 77.7619 127.086 75.856 128.611 75.4748C131.661 74.7124 134.71 73.5689 137.76 72.8065C140.047 72.0441 142.334 71.6629 144.621 70.9006C145.002 70.9006 145.764 70.5194 146.146 70.5194C146.527 70.5194 146.908 70.1382 147.289 70.1382C148.052 69.3758 150.339 68.9946 149.957 67.0887Z" fill="primaryColor"/>
    <path d="M75.3679 32C43.2095 32 32.7393 38.75 29 42.5L34.2351 60.5C37.2266 58.75 47.6967 52.25 75.3679 52.25C106.778 52.25 112.512 58.75 116.501 62L120.24 44.75C116.002 41.25 107.526 32 75.3679 32Z" fill="secondaryColor"/>
    </svg>